<svg xmlns="http://www.w3.org/2000/svg" viewBox="0 0 800 800" width="100%" height="100%">
  <defs>
    <radialGradient id="grad" cx="60%" cy="40%" r="70%">
      <stop offset="0%" stop-color="#f3e5d3" stop-opacity="0.85"/>
      <stop offset="40%" stop-color="#6e5645" stop-opacity="0.95"/>
      <stop offset="100%" stop-color="#2a1f18" stop-opacity="1"/>
    </radialGradient>
    <linearGradient id="lines" x1="0" y1="0" x2="1" y2="1">
      <stop offset="0%" stop-color="#ffffff" stop-opacity="0.4"/>
      <stop offset="50%" stop-color="#f3e5d3" stop-opacity="0.3"/>
      <stop offset="100%" stop-color="#000000" stop-opacity="0"/>
    </linearGradient>
  </defs>
  <rect width="800" height="800" fill="url(#grad)"/>
  
  <!-- Flowing hair line paths -->
  <g stroke="url(#lines)" fill="none" stroke-linecap="round" opacity="0.6">
    <path d="M 100,50 C 250,200 180,500 350,850" stroke-width="18"/>
    <path d="M 200,30 C 350,220 280,520 450,850" stroke-width="22"/>
    <path d="M 320,10 C 470,240 400,540 560,850" stroke-width="26"/>
    <path d="M 450,0 C 580,260 520,560 670,850" stroke-width="16"/>
    <path d="M 580,20 C 690,280 620,580 750,850" stroke-width="20"/>
  </g>

  <!-- Accent glow highlights -->
  <circle cx="550" cy="250" r="140" fill="#f3e5d3" opacity="0.25" filter="blur(40px)"/>

  

  <!-- Watermark badge -->
  <g transform="translate(40, 710)">
    <rect width="280" height="50" rx="12" fill="#2e231c" opacity="0.75"/>
    <text x="20" y="32" font-family="'Source Serif 4', serif" font-size="19" fill="#fbf8f2" font-weight="600">Boho Bridal Braid</text>
  </g>
</svg>